<?xml version="1.0" encoding="UTF-8" standalone="no"?>
<svg xmlns="http://www.w3.org/2000/svg" width="256" height="256" viewBox="0 0 256 256">
  <!-- Background Circle -->
  <circle cx="128" cy="128" r="120" fill="#00205B" />
  <circle cx="128" cy="128" r="112" fill="#FFFFFF" />
  <circle cx="128" cy="128" r="104" fill="#00205B" />

  <!-- Military Envelope with Wings -->
  <path d="M78,98 L128,70 L178,98 L178,148 L78,148 Z" fill="#008000" stroke="#FFD700" stroke-width="3" />
  <path d="M78,98 L128,118 L178,98" fill="none" stroke="#FFD700" stroke-width="3" />
  
  <!-- Wings -->
  <path d="M78,118 C58,108 48,128 63,148" fill="#FFD700" />
  <path d="M178,118 C198,108 208,128 193,148" fill="#FFD700" />

  <!-- Military Star -->
  <path d="M128,60 L134,76 L152,76 L138,86 L144,102 L128,92 L112,102 L118,86 L104,76 L122,76 Z" fill="#FFD700" />

  <!-- Radio Tower -->
  <rect x="125" y="155" width="6" height="20" fill="#FFD700" />
  <path d="M110,175 L146,175 L146,182 L110,182 Z" fill="#FFD700" />

  <!-- Signal Waves (Active) -->
  <path d="M98,160 Q128,140 158,160" stroke="#FFFFFF" stroke-width="3" fill="none" />
  <path d="M88,150 Q128,130 168,150" stroke="#FFFFFF" stroke-width="3" fill="none" />
  <path d="M78,140 Q128,120 178,140" stroke="#FFFFFF" stroke-width="3" fill="none" />

  <!-- Text -->
  <text x="128" y="210" font-family="Arial, sans-serif" font-size="24" font-weight="bold" text-anchor="middle" fill="#FFFFFF">NASDS</text>
</svg>
