<?xml version="1.0" encoding="UTF-8" standalone="no"?>
<svg xmlns="http://www.w3.org/2000/svg" width="400" height="800" viewBox="0 0 400 800">
  <!-- Background Gradient -->
  <defs>
    <linearGradient id="bgGradient" x1="0%" y1="0%" x2="100%" y2="100%">
      <stop offset="0%" stop-color="#00205B" />
      <stop offset="100%" stop-color="#004000" />
    </linearGradient>
  </defs>
  
  <!-- Background Rectangle -->
  <rect width="400" height="800" fill="url(#bgGradient)" />
  
  <!-- Signal Pattern -->
  <g opacity="0.1" fill="#FFFFFF">
    <!-- Signal Waves Pattern -->
    <g transform="translate(0, 0)">
      <path d="M0,50 Q50,0 100,50 Q150,100 200,50 Q250,0 300,50 Q350,100 400,50" stroke="#FFFFFF" stroke-width="2" fill="none" />
      <path d="M0,150 Q50,100 100,150 Q150,200 200,150 Q250,100 300,150 Q350,200 400,150" stroke="#FFFFFF" stroke-width="2" fill="none" />
      <path d="M0,250 Q50,200 100,250 Q150,300 200,250 Q250,200 300,250 Q350,300 400,250" stroke="#FFFFFF" stroke-width="2" fill="none" />
      <path d="M0,350 Q50,300 100,350 Q150,400 200,350 Q250,300 300,350 Q350,400 400,350" stroke="#FFFFFF" stroke-width="2" fill="none" />
      <path d="M0,450 Q50,400 100,450 Q150,500 200,450 Q250,400 300,450 Q350,500 400,450" stroke="#FFFFFF" stroke-width="2" fill="none" />
      <path d="M0,550 Q50,500 100,550 Q150,600 200,550 Q250,500 300,550 Q350,600 400,550" stroke="#FFFFFF" stroke-width="2" fill="none" />
      <path d="M0,650 Q50,600 100,650 Q150,700 200,650 Q250,600 300,650 Q350,700 400,650" stroke="#FFFFFF" stroke-width="2" fill="none" />
      <path d="M0,750 Q50,700 100,750 Q150,800 200,750 Q250,700 300,750 Q350,800 400,750" stroke="#FFFFFF" stroke-width="2" fill="none" />
    </g>
  </g>
  
  <!-- Decorative Elements -->
  <g opacity="0.2">
    <circle cx="50" cy="100" r="30" fill="#FFD700" />
    <circle cx="350" cy="700" r="40" fill="#FFD700" />
    <circle cx="200" cy="400" r="60" fill="#FFD700" opacity="0.1" />
  </g>
</svg>
