<?xml version="1.0" encoding="UTF-8" standalone="no"?>
<svg xmlns="http://www.w3.org/2000/svg" width="200" height="200" viewBox="0 0 200 200">
  <!-- Background Circle -->
  <circle cx="100" cy="100" r="90" fill="#00205B" />
  <circle cx="100" cy="100" r="85" fill="#FFFFFF" />
  <circle cx="100" cy="100" r="80" fill="#00205B" />

  <!-- Signal Waves (Background) -->
  <path d="M50,60 Q100,40 150,60" stroke="#FFD700" stroke-width="3" fill="none" opacity="0.5" />
  <path d="M50,75 Q100,55 150,75" stroke="#FFD700" stroke-width="3" fill="none" opacity="0.5" />
  <path d="M50,90 Q100,70 150,90" stroke="#FFD700" stroke-width="3" fill="none" opacity="0.5" />

  <!-- Military Envelope with Wings -->
  <path d="M60,70 L100,50 L140,70 L140,110 L60,110 Z" fill="#008000" stroke="#FFD700" stroke-width="2" />
  <path d="M60,70 L100,90 L140,70" fill="none" stroke="#FFD700" stroke-width="2" />

  <!-- Wings -->
  <path d="M60,90 C40,80 30,100 45,110" fill="#FFD700" />
  <path d="M140,90 C160,80 170,100 155,110" fill="#FFD700" />

  <!-- Military Star -->
  <path d="M100,45 L104,56 L116,56 L106,63 L110,74 L100,67 L90,74 L94,63 L84,56 L96,56 Z" fill="#FFD700" />

  <!-- Radio Tower -->
  <rect x="97" y="115" width="6" height="15" fill="#FFD700" />
  <path d="M85,130 L115,130 L115,135 L85,135 Z" fill="#FFD700" />

  <!-- Signal Waves (Active) -->
  <path d="M75,120 Q100,100 125,120" stroke="#FFFFFF" stroke-width="2" fill="none" />
  <path d="M65,115 Q100,90 135,115" stroke="#FFFFFF" stroke-width="2" fill="none" />
  <path d="M55,110 Q100,80 145,110" stroke="#FFFFFF" stroke-width="2" fill="none" />

  <!-- Text -->
  <text x="100" y="155" font-family="Arial, sans-serif" font-size="14" font-weight="bold" text-anchor="middle" fill="#FFFFFF">NASDS</text>
  <text x="100" y="170" font-family="Arial, sans-serif" font-size="6" font-weight="normal" text-anchor="middle" fill="#FFFFFF">NIGERIAN ARMY SIGNAL DISPATCH SERVICE</text>
</svg>


